<?xml version="1.0" standalone="no"?>
<!DOCTYPE svg PUBLIC "-//W3C//DTD SVG 20010904//EN"
 "http://www.w3.org/TR/2001/REC-SVG-20010904/DTD/svg10.dtd">
<svg version="1.0" xmlns="http://www.w3.org/2000/svg"
 width="700.000000pt" height="700.000000pt" viewBox="0 0 700.000000 700.000000"
 preserveAspectRatio="xMidYMid meet">
<metadata>
Created by potrace 1.14, written by Peter Selinger 2001-2017
</metadata>
<g transform="translate(0.000000,700.000000) scale(0.100000,-0.100000)"
fill="#000000" stroke="none">
<path d="M2711 6562 c-25 -23 -64 -44 -86 -46 -5 -1 -10 -6 -10 -13 0 -6 -4
-15 -9 -20 -5 -5 -6 -3 -2 5 4 6 2 12 -3 12 -6 0 -11 -7 -11 -15 0 -8 -5 -15
-11 -15 -5 0 -7 -4 -4 -10 3 -5 -1 -10 -9 -10 -9 0 -13 -7 -11 -19 3 -15 -1
-18 -12 -14 -11 4 -14 2 -9 -5 4 -7 2 -12 -4 -12 -6 0 -9 -4 -5 -9 3 -5 1 -12
-5 -16 -5 -3 -10 -14 -10 -24 0 -10 -10 -25 -22 -34 -20 -13 -21 -17 -9 -29 8
-7 11 -8 7 -1 -3 6 -2 14 3 17 5 4 8 -2 6 -11 -1 -10 -8 -17 -14 -15 -6 1 -11
-3 -11 -9 0 -5 -4 -8 -9 -4 -6 3 -10 -3 -10 -12 0 -24 -5 -45 -15 -62 -7 -11
-5 -13 10 -8 15 5 15 4 -3 -9 -18 -13 -21 -20 -12 -35 7 -14 7 -19 -2 -17 -6
2 -13 -8 -15 -22 -3 -14 -9 -26 -14 -28 -6 -2 -10 -9 -10 -15 0 -6 -10 -22
-22 -36 -17 -18 -18 -21 -4 -11 18 14 18 14 6 -7 -8 -12 -18 -19 -22 -17 -7 5
-9 -2 -8 -22 1 -3 -9 -14 -22 -25 -13 -11 -17 -18 -10 -14 18 9 15 -2 -8 -25
-20 -20 -20 -20 -52 13 -18 18 -33 39 -33 47 0 8 -8 14 -17 14 -10 -1 -16 2
-13 6 3 5 -1 10 -7 13 -10 3 -10 8 2 22 14 17 13 17 -10 11 -24 -7 -24 -6 -6
8 19 16 19 16 -4 16 -23 0 -23 0 -4 16 10 8 13 13 7 9 -7 -3 -13 0 -13 7 0 9
-3 9 -10 -2 -5 -8 -10 -10 -10 -4 0 5 5 15 11 21 7 7 6 21 -4 46 -9 19 -12 39
-9 43 4 4 0 3 -8 -2 -17 -10 -45 -15 -36 -7 3 3 1 14 -5 24 -5 11 -6 19 -1 19
6 0 12 -10 16 -22 5 -19 8 -20 15 -8 7 10 6 17 -2 22 -7 4 -8 8 -3 8 6 0 5 5
-2 12 -7 7 -12 19 -12 27 0 8 -12 30 -27 49 -15 20 -21 32 -14 27 9 -5 12 -3
9 6 -6 17 -34 19 -30 2 1 -7 -2 -13 -7 -13 -6 0 -9 9 -8 19 0 11 4 19 7 19 18
-2 21 4 10 17 -7 8 -9 15 -4 15 5 0 3 4 -4 9 -7 4 -15 14 -16 22 -4 21 -18 52
-30 67 -14 18 -66 72 -69 72 -1 0 -1 -18 1 -40 3 -25 8 -37 15 -33 5 3 7 1 3
-5 -3 -6 -2 -13 3 -17 6 -3 8 -11 5 -18 -7 -18 -44 -16 -44 3 0 12 -2 13 -9 1
-7 -11 -10 -9 -16 8 -3 11 -13 21 -21 21 -15 0 -15 1 -19 -55 -4 -56 -3 -55
-22 -48 -10 4 -14 2 -9 -5 3 -6 2 -14 -4 -17 -8 -5 -8 -11 -1 -19 6 -7 8 -16
5 -19 -4 -3 -3 -14 1 -24 5 -10 10 -29 12 -43 2 -14 12 -34 21 -44 9 -11 11
-16 5 -12 -7 4 -13 2 -13 -3 0 -6 6 -11 13 -11 8 0 7 -4 -3 -10 -13 -8 -12
-10 4 -10 15 0 16 -3 7 -14 -8 -10 -9 -16 -1 -21 6 -3 8 -10 5 -14 -2 -5 3
-17 11 -27 9 -10 12 -12 8 -4 -4 8 -3 11 1 7 11 -10 16 -39 5 -32 -4 3 -10 -2
-14 -10 -3 -8 0 -17 6 -21 6 -4 8 -3 5 3 -3 5 0 10 8 10 13 0 13 -3 0 -17 -8
-9 -12 -20 -8 -23 3 -4 -1 -7 -11 -7 -9 0 -15 -4 -12 -8 3 -5 -4 -16 -15 -25
-10 -9 -19 -14 -19 -10 0 4 -13 -9 -30 -27 -16 -18 -30 -37 -30 -42 0 -14 -2
-22 -11 -45 -5 -15 -5 -23 2 -23 6 0 6 -7 -1 -20 -6 -11 -8 -20 -5 -20 4 0 0
-7 -9 -15 -8 -8 -24 -15 -34 -15 -11 0 -22 -4 -24 -9 -1 -5 -21 -12 -43 -16
-58 -9 -79 -13 -85 -15 -3 -1 -9 -2 -13 -1 -5 1 -6 -3 -3 -8 5 -8 -48 -26 -67
-22 -5 1 -6 -3 -2 -9 3 -5 0 -10 -7 -10 -17 0 -68 -44 -68 -59 0 -6 -4 -11 -9
-11 -8 0 -17 -21 -26 -59 -2 -8 -10 -18 -17 -22 -7 -5 -9 -9 -4 -9 5 0 -15
-17 -45 -38 -53 -37 -54 -39 -55 -87 -1 -63 -11 -105 -32 -129 -9 -10 -16 -20
-15 -22 5 -9 -20 -64 -29 -64 -5 0 -6 -5 -3 -10 4 -6 2 -16 -3 -23 -7 -9 -33
-100 -37 -127 0 -3 -3 -10 -7 -16 -17 -27 -24 -92 -14 -134 3 -14 7 -37 8 -52
1 -16 6 -28 11 -28 4 0 5 -4 2 -10 -3 -5 -1 -10 5 -10 6 0 8 -4 5 -10 -3 -5
-1 -10 4 -10 6 0 10 -3 9 -7 -3 -8 14 -30 65 -85 15 -17 27 -39 27 -49 0 -10
4 -19 10 -19 5 0 7 -8 3 -17 -3 -10 -2 -15 2 -11 5 5 14 -1 22 -11 7 -11 29
-25 48 -31 19 -6 35 -15 35 -20 0 -5 9 -7 20 -5 11 2 20 -1 20 -6 0 -5 6 -9
13 -8 6 1 19 0 27 -4 17 -6 75 -17 108 -19 12 -1 22 -6 22 -11 0 -4 4 -6 9 -3
5 3 20 -3 34 -14 14 -11 30 -20 37 -20 6 0 8 -4 5 -10 -3 -5 0 -10 7 -10 7 0
29 -14 48 -30 19 -16 38 -30 42 -30 4 0 35 -13 67 -29 33 -16 62 -27 65 -24 2
3 11 1 18 -3 7 -5 22 -10 32 -11 11 -2 25 -8 32 -14 7 -6 18 -8 24 -4 5 3 10
1 10 -4 0 -6 7 -11 15 -11 8 0 15 -4 15 -10 0 -5 8 -10 18 -10 10 0 26 -6 37
-14 11 -7 25 -15 30 -16 6 -1 24 -8 40 -14 53 -23 149 -55 175 -60 14 -2 26
-5 28 -7 1 -1 5 -2 10 -3 23 -4 72 -30 72 -38 0 -5 5 -6 10 -3 6 3 10 1 10 -4
0 -6 7 -11 15 -11 8 0 15 -5 15 -11 0 -6 7 -9 15 -5 8 3 15 1 15 -4 0 -6 9
-10 19 -10 11 0 23 -5 26 -11 4 -6 13 -8 21 -5 7 3 16 1 19 -5 4 -5 11 -7 16
-4 5 4 9 2 9 -4 0 -5 8 -8 18 -6 9 1 21 0 27 -3 5 -3 21 -7 35 -8 14 -1 36 -5
50 -7 38 -8 110 -18 158 -22 24 -2 55 -6 70 -9 15 -4 38 -8 51 -11 51 -10 79
-30 97 -69 21 -50 58 -87 101 -105 18 -7 33 -12 35 -12 2 1 21 -5 43 -15 22
-9 41 -16 43 -15 1 0 3 1 5 0 7 -2 45 -9 67 -13 81 -12 110 -20 110 -27 0 -5
3 -8 8 -7 4 1 17 -3 28 -10 25 -14 36 -46 21 -61 -6 -6 -7 -11 -2 -11 5 0 0
-7 -11 -16 -10 -8 -13 -13 -6 -9 16 8 16 -10 -1 -27 -25 -25 7 -71 45 -64 13
3 25 5 27 5 2 1 -3 9 -10 18 -8 9 -9 14 -3 10 7 -4 17 0 24 8 10 12 16 13 27
3 11 -9 16 -9 23 1 6 10 9 10 15 1 4 -6 13 -9 20 -6 7 2 16 2 20 -2 4 -4 10
-7 13 -8 28 -2 72 -17 72 -25 0 -5 3 -8 8 -8 33 5 37 -34 9 -88 -10 -18 -15
-33 -11 -33 4 0 1 -7 -6 -15 -20 -24 3 -39 52 -36 24 1 70 3 103 5 33 1 75 10
94 19 55 28 66 18 69 -65 6 -121 18 -198 32 -198 4 0 11 -10 15 -22 4 -13 8
-26 10 -30 6 -19 7 -23 6 -30 0 -5 4 -8 9 -8 5 0 9 -4 7 -8 -2 -8 43 -112 53
-122 3 -3 16 -27 30 -54 14 -26 35 -58 47 -70 13 -11 23 -27 23 -35 0 -8 3
-12 6 -8 3 3 17 -6 31 -21 61 -67 130 -137 137 -139 4 -1 28 -20 52 -42 25
-23 47 -41 49 -41 2 0 26 -22 54 -49 28 -27 51 -48 51 -45 0 13 121 -120 150
-164 42 -66 48 -104 36 -247 -5 -60 -9 -84 -22 -137 -1 -5 -2 -15 -3 -24 0 -8
-5 -12 -11 -9 -5 3 -10 1 -10 -4 0 -6 -8 -11 -17 -11 -15 0 -15 -1 2 -14 18
-13 18 -14 -4 -50 -13 -20 -29 -36 -37 -36 -8 0 -14 -4 -14 -10 0 -5 -7 -7
-15 -4 -11 5 -13 2 -9 -10 4 -9 9 -15 11 -12 3 3 11 -1 18 -7 19 -18 1 -44
-35 -52 -16 -4 -30 -13 -30 -21 0 -8 3 -13 8 -13 4 1 10 0 15 -1 4 -1 13 -3
20 -4 13 -2 10 -39 -4 -44 -5 -2 -7 -7 -4 -12 3 -4 -2 -11 -11 -14 -9 -3 -12
-2 -8 5 3 6 -2 5 -13 -2 -18 -11 -19 -13 -4 -29 9 -9 19 -15 23 -13 4 2 2 -11
-4 -29 -5 -18 -11 -45 -13 -60 -2 -14 -6 -32 -10 -39 -5 -8 -4 -10 3 -5 7 4
12 3 12 -2 0 -6 -7 -13 -16 -16 -9 -3 -12 -11 -8 -18 5 -7 2 -9 -8 -5 -23 8
-31 -4 -11 -18 15 -11 14 -14 -5 -33 -12 -12 -30 -19 -46 -18 -28 3 -36 -11
-11 -20 22 -9 18 -34 -6 -34 -11 0 -18 -4 -15 -9 4 -5 -3 -7 -14 -4 -11 3 -17
10 -13 17 3 6 -3 3 -15 -8 -19 -16 -22 -36 -6 -36 3 0 3 4 -1 9 -3 5 -1 12 4
15 17 11 23 -33 7 -50 -9 -8 -16 -12 -16 -9 0 4 -11 0 -24 -9 -19 -12 -26 -12
-30 -3 -4 6 -4 2 -2 -11 3 -15 0 -22 -7 -19 -7 2 -17 -3 -24 -12 -11 -14 -12
-13 -8 6 2 12 -4 27 -13 35 -15 12 -16 11 -3 -4 12 -16 11 -18 -5 -19 -11 0
-14 -3 -6 -6 6 -2 12 -9 12 -14 0 -6 -5 -7 -10 -4 -6 4 -10 3 -9 -2 4 -21 -3
-32 -23 -39 -41 -14 -48 -13 -64 9 -16 21 -16 21 -12 2 3 -11 -1 -26 -9 -33
-9 -9 -13 -10 -13 -1 0 8 -5 7 -17 -2 -14 -12 -16 -12 -9 0 6 9 4 12 -5 9 -8
-3 -15 -10 -15 -16 -1 -7 -3 -14 -4 -17 -1 -3 -3 -8 -5 -12 -1 -5 -4 -15 -7
-23 -14 -35 -14 -58 -3 -74 7 -9 17 -16 21 -14 5 1 30 -1 56 -6 38 -6 46 -10
42 -24 -5 -14 -4 -14 6 1 11 18 12 18 26 0 14 -17 14 -17 8 1 -6 16 -4 17 13
8 11 -6 23 -9 26 -5 4 3 13 0 22 -7 13 -11 14 -10 10 2 -5 11 1 15 22 14 15
-1 34 3 41 8 8 5 12 4 12 -4 0 -10 3 -10 15 0 14 11 19 7 16 -12 0 -4 6 -5 14
-2 8 4 13 10 10 14 -3 5 4 6 15 3 11 -3 20 -1 20 5 0 5 22 9 51 8 28 -1 53 2
56 7 2 4 10 3 17 -2 7 -6 16 -8 20 -4 4 4 27 9 52 10 24 2 64 10 87 18 23 9
47 17 52 18 6 1 12 4 15 7 3 3 23 18 45 35 22 16 51 41 66 55 45 45 129 157
122 164 -3 3 -2 6 4 6 5 0 18 18 28 40 10 22 22 40 28 40 5 0 7 7 3 15 -3 8
-1 15 4 15 6 0 10 5 10 10 0 6 11 33 25 62 14 28 23 53 20 56 -2 2 2 11 10 19
8 8 15 23 15 33 0 10 5 22 10 25 6 4 8 11 5 16 -4 5 -1 9 4 9 6 0 11 7 11 15
0 8 11 39 25 70 13 31 20 53 16 50 -5 -2 0 12 10 32 11 21 19 45 19 55 0 9 4
19 9 23 5 3 12 19 16 35 4 17 11 30 16 30 5 0 8 4 6 9 -3 11 54 123 68 133 6
4 6 8 1 8 -4 0 -1 11 7 24 9 13 18 35 21 49 2 14 10 36 17 49 7 12 13 34 15
48 1 14 4 39 7 55 16 86 20 128 20 205 0 91 -9 195 -17 209 -3 5 4 20 15 35
16 20 27 25 47 21 15 -2 28 -9 30 -14 2 -6 10 -7 18 -4 8 3 14 0 14 -6 0 -6 7
-11 15 -11 8 0 15 -4 15 -9 0 -15 89 -34 138 -28 38 4 125 37 100 37 -4 0 4
29 17 64 21 57 30 114 26 167 -2 25 -62 85 -97 96 -41 14 -89 11 -186 -13 -5
-1 -10 -3 -13 -4 -6 -2 -54 -3 -57 0 -2 1 -21 3 -43 4 -81 5 -181 39 -169 57
3 5 0 9 -5 9 -6 0 -10 3 -9 8 1 4 -15 43 -36 87 -86 180 -100 212 -101 245 -1
19 -8 49 -15 65 -7 17 -13 46 -12 64 2 40 -16 64 -96 123 -47 35 -53 44 -50
69 3 16 0 29 -5 29 -6 0 -7 3 -4 6 8 9 -32 44 -50 44 -7 0 -13 5 -13 12 0 6
-3 8 -6 5 -4 -3 -16 -1 -28 5 -11 7 -23 13 -26 13 -25 4 -99 48 -97 57 1 7 13
22 27 33 14 11 27 23 28 27 2 5 9 8 15 8 7 0 18 9 24 19 10 16 9 22 -3 32 -9
7 -21 14 -28 15 -6 1 -24 8 -41 15 -16 6 -34 13 -40 14 -30 8 -163 63 -227 95
-20 10 -39 16 -42 13 -3 -4 -6 -1 -6 5 0 7 -7 12 -16 12 -8 0 -12 5 -9 10 3 6
-1 10 -9 10 -14 0 -47 24 -90 66 -20 19 -73 44 -80 37 -3 -4 -6 -1 -6 5 0 7
-9 12 -19 12 -11 0 -23 5 -26 11 -4 6 -13 8 -21 5 -7 -3 -16 -1 -19 5 -4 5
-11 7 -16 4 -5 -4 -9 -1 -9 6 0 6 -8 9 -20 6 -13 -3 -24 1 -30 13 -5 10 -24
22 -42 26 -18 3 -38 14 -45 23 -6 10 -33 28 -60 41 -26 14 -51 29 -54 33 -4 5
-26 10 -50 10 -31 1 -51 8 -68 23 -14 13 -28 21 -33 18 -4 -3 -8 -1 -8 4 0 16
-75 31 -95 19 -10 -5 -15 -6 -12 -1 6 10 -12 27 -33 32 -8 2 -17 7 -20 10 -3
4 -18 8 -35 10 -16 2 -34 8 -40 13 -5 5 -15 9 -23 9 -8 0 -23 11 -34 25 -11
14 -24 22 -30 19 -6 -4 -13 -3 -17 2 -9 13 -48 34 -62 34 -7 0 -18 8 -26 18
-9 10 -11 11 -7 2 6 -11 2 -10 -13 3 -11 9 -25 17 -31 17 -7 0 -12 5 -12 11 0
6 -7 9 -15 5 -8 -3 -15 -1 -15 4 0 5 -18 15 -40 21 -22 7 -47 23 -57 37 -10
13 -28 35 -41 48 -13 13 -21 24 -18 24 3 0 -10 16 -28 36 -18 20 -37 35 -41
34 -4 -1 -11 3 -14 9 -4 6 -19 12 -34 13 -15 1 -27 6 -27 10 0 4 -5 7 -11 6
-6 -2 -13 5 -14 15 -2 10 -14 27 -28 37 -14 11 -28 31 -31 45 -4 14 -11 25
-17 25 -6 0 -7 5 -4 10 3 6 2 10 -3 10 -4 0 -17 8 -28 18 -22 20 -93 55 -111
55 -7 0 -13 7 -13 14 0 8 -4 11 -10 8 -5 -3 -7 0 -5 8 3 7 -6 26 -20 41 -25
27 -33 42 -17 32 5 -3 9 1 9 9 0 8 -4 12 -9 9 -4 -3 -8 -1 -8 4 0 5 -12 18
-27 28 -20 12 -25 13 -18 3 6 -8 -1 -3 -15 11 -14 14 -20 19 -15 10 9 -13 8
-13 -8 -1 -13 10 -15 17 -6 27 11 14 10 15 -13 18 -7 0 -13 9 -12 19 2 48 5
58 14 52 6 -4 7 1 3 10 -3 10 0 21 8 26 11 8 9 9 -6 7 -15 -2 -20 3 -20 22 -1
14 2 30 6 35 4 6 8 14 8 19 0 6 8 11 17 12 14 2 14 0 -2 -17 -16 -17 -16 -19
-1 -19 10 0 16 3 16 8 -1 4 0 9 1 12 2 6 6 26 13 63 3 15 8 35 11 45 9 29 17
74 30 162 2 14 7 33 11 43 4 10 9 34 10 55 1 20 4 37 5 37 1 0 3 14 5 30 1 17
3 30 5 30 1 0 3 18 4 40 1 22 5 45 9 52 4 6 3 14 -3 18 -7 4 -6 13 1 27 9 16
8 19 -2 13 -8 -6 -10 -4 -4 6 11 17 12 50 2 66 -4 6 -3 14 3 18 6 4 7 11 3 17
-3 7 -8 30 -9 52 -2 23 -6 57 -10 76 -4 19 -8 42 -9 51 -2 14 -30 106 -42 139
-4 8 -5 21 -4 28 1 6 -3 12 -9 12 -5 0 -9 3 -9 8 4 22 -2 42 -11 37 -5 -3 -10
-2 -10 3 0 17 -33 8 -59 -16z m-646 -312 c-1 -17 -5 -33 -10 -38 -4 -4 -4 3
-1 16 5 14 3 22 -5 22 -9 0 -8 4 1 15 17 20 17 20 15 -15z m-219 2 c-3 -3 0
-12 7 -21 10 -14 10 -14 -4 -4 -9 7 -20 9 -25 5 -4 -4 -3 0 4 9 6 9 8 20 4 24
-4 5 -1 5 6 1 7 -5 11 -11 8 -14z m30 -113 c2 -17 -1 -26 -11 -26 -11 0 -12 4
-4 14 9 10 8 13 -1 13 -10 0 -10 3 -1 14 8 10 9 16 1 21 -5 3 -10 14 -9 23 0
22 20 -24 25 -59z m254 -10 c15 -28 5 -23 -15 7 -9 15 -12 23 -6 20 6 -4 16
-16 21 -27z"/>
<path d="M2190 6002 c0 -5 7 -9 15 -9 8 0 12 4 9 9 -3 4 -9 8 -15 8 -5 0 -9
-4 -9 -8z"/>
<path d="M2744 5405 c0 -15 5 -21 13 -18 7 3 13 11 13 18 0 7 -6 15 -13 18 -8
3 -13 -3 -13 -18z"/>
<path d="M4390 911 c0 -6 4 -13 10 -16 6 -3 7 1 4 9 -7 18 -14 21 -14 7z"/>
<path d="M4287 679 c4 -13 8 -18 11 -10 2 7 -1 18 -6 23 -8 8 -9 4 -5 -13z"/>
<path d="M4357 685 c3 -8 9 -12 14 -9 12 7 11 11 -5 17 -10 4 -13 1 -9 -8z"/>
<path d="M4316 658 c3 -5 10 -6 15 -3 13 9 11 12 -6 12 -8 0 -12 -4 -9 -9z"/>
</g>
</svg>
